<svg xmlns="http://www.w3.org/2000/svg" width="411.746" height="487.729" viewBox="0 0 108.941 129.045"><g transform="translate(-47.976 -15.972)"><path d="m104.766 136.443 19.987-3.243-18.244 9.037m0 0c1.045-2.054.512-4.82-1.743-5.794" style="display:inline;fill:#000;stroke:#000;stroke-width:.264583px;stroke-linecap:butt;stroke-linejoin:miter;stroke-opacity:1"/><path d="M151.689 141.198c1.354-22.65-15.131-44.593-37.148-49.877-20.596-5.647-44.042 3.906-54.838 22.328-4.995 8.216-7.573 17.932-7.112 27.55" style="display:inline;fill:none;stroke:#000;stroke-width:.499999;stroke-miterlimit:4;stroke-dasharray:none;stroke-opacity:1"/><path d="M146.73 141.198c1.342-20.832-14.125-41-34.504-45.334-19.011-4.728-40.288 4.872-49.354 22.228-3.816 7.027-5.732 15.112-5.322 23.106" style="fill:none;stroke:#000;stroke-width:.499999;stroke-miterlimit:4;stroke-dasharray:none;stroke-opacity:1"/><circle cx="102.575" cy="140.325" r="4.442" style="fill:none;stroke:#000;stroke-width:.5;stroke-miterlimit:4;stroke-dasharray:none;stroke-opacity:1"/><text xml:space="preserve" x="165.126" y="-78.313" style="font-style:normal;font-weight:400;font-size:10.5833px;line-height:1.25;font-family:sans-serif;fill:#000;fill-opacity:1;stroke:none;stroke-width:.264583" transform="rotate(70.665)"><tspan x="165.126" y="-78.313" style="font-style:normal;font-variant:normal;font-weight:400;font-stretch:normal;font-family:&quot;Booster Next FY&quot;;-inkscape-font-specification:&quot;Booster Next FY&quot;;stroke-width:.264583">1</tspan></text><text xml:space="preserve" x="-104.232" y="112.983" style="font-style:normal;font-weight:400;font-size:10.5833px;line-height:1.25;font-family:sans-serif;fill:#000;fill-opacity:1;stroke:none;stroke-width:.264583" transform="rotate(-71.544)"><tspan x="-104.232" y="112.983" style="font-style:normal;font-variant:normal;font-weight:400;font-stretch:normal;font-family:&quot;Booster Next FY&quot;;-inkscape-font-specification:&quot;Booster Next FY&quot;;stroke-width:.264583">4</tspan></text><text xml:space="preserve" x="99.346" y="111.281" style="font-style:normal;font-weight:400;font-size:10.5833px;line-height:1.25;font-family:sans-serif;fill:#000;fill-opacity:1;stroke:none;stroke-width:.264583"><tspan x="99.346" y="111.281" style="font-style:normal;font-variant:normal;font-weight:400;font-stretch:normal;font-family:&quot;Booster Next FY&quot;;-inkscape-font-specification:&quot;Booster Next FY&quot;;stroke-width:.264583">0</tspan></text><path d="m144.1 105.754-6.362 2.268" style="fill:none;stroke:#000;stroke-width:.5;stroke-linecap:butt;stroke-linejoin:miter;stroke-miterlimit:4;stroke-dasharray:none;stroke-opacity:1" transform="translate(0 21.167)"/><path d="m102.44 73.717-.02 7.297" style="fill:none;stroke:#000;stroke-width:.493654;stroke-linecap:butt;stroke-linejoin:miter;stroke-miterlimit:4;stroke-dasharray:none;stroke-opacity:1" transform="translate(0 21.167)"/><path d="m60.779 105.813 6.123 1.96" style="fill:none;stroke:#000;stroke-width:.5;stroke-linecap:butt;stroke-linejoin:miter;stroke-miterlimit:4;stroke-dasharray:none;stroke-opacity:1" transform="translate(0 21.167)"/><path d="m63.596 100.8 2.442 1.253M66.395 95.9l2.018 1.437M69.58 91.496l1.886 1.664M73.264 87.422l1.642 1.818M77.284 83.738l3.04 4.165M81.965 80.843l1.17 2.044M86.603 78.353l.874 2.134M91.838 76.625l.645 2.52M97.16 75.558l.268 2.632M107.783 75.395l-.125 2.755M112.98 76.52l-.367 2.399M118.166 78.356l-.87 2.253M123.01 80.72l-1.18 2.202M127.399 83.664l-2.736 4.276M131.676 87.27l-1.547 1.764M135.362 91.414l-1.887 1.725M138.406 96.032l-2.025 1.28M141.027 100.898l-2.125 1.124M144.474 111.668l-2.557.353M142.606 117.362l2.345-.044M60.376 111.627l2.41.381M59.952 117.217l2.093-.024" style="fill:none;stroke:#000;stroke-width:.264583px;stroke-linecap:butt;stroke-linejoin:miter;stroke-opacity:1" transform="translate(0 21.167)"/><path d="M92.132 90.692c-7.622.031-15.27-.307-22.877-.039-4.427 1.079-3.436 6.378-4.052 9.827l-.66 6.713m0 0c6.906-8.556 16.968-14.054 27.59-16.5M111.685 90.747c7.984.093 15.989-.133 23.96.16 4.398 1.305 3.286 6.403 3.943 9.9l.665 6.697c-6.893-9.165-17.619-14.266-28.568-16.757zM98.366 90.017l-.049-7.342-50.063-.05c.444-1.995-1.18-5.543 1.322-6.203l105.86-.013c2.299.852.789 4.192 1.23 6.161l-50.256.047-.082 7.293c-2.645-.277-5.33-.31-7.962.107z" style="fill:none;stroke:#000;stroke-width:.5;stroke-linecap:butt;stroke-linejoin:miter;stroke-miterlimit:4;stroke-dasharray:none;stroke-opacity:1"/><path d="m98.317 82.675 8.093-.058" style="fill:none;stroke:#000;stroke-width:.264583px;stroke-linecap:butt;stroke-linejoin:miter;stroke-opacity:1"/><path d="m81.861 54.91.046-42.548 40.799-.031.102 42.465-40.947.114zM93.176.775l19.01-.034c4.381-2.66-.317-6.751-3.9-5.435H92.99c-2.92.367-2.841 5.32.186 5.469z" style="fill:none;stroke:#000;stroke-width:1;stroke-linecap:butt;stroke-linejoin:miter;stroke-miterlimit:4;stroke-dasharray:none;stroke-opacity:1" transform="translate(0 21.167)"/><path d="M81.907 12.362c5.924-1.514 13.341-4.457 13.456-11.71M109.516.548c.006 7.32 7.114 10.38 13.19 11.783" style="fill:none;stroke:#000;stroke-width:1;stroke-linecap:butt;stroke-linejoin:miter;stroke-miterlimit:4;stroke-dasharray:none;stroke-opacity:1" transform="translate(0 21.167)"/><text xml:space="preserve" x="84.116" y="57.793" style="font-style:normal;font-weight:400;font-size:10.5833px;line-height:1.25;font-family:sans-serif;fill:#000;fill-opacity:1;stroke:none;stroke-width:.264583"><tspan x="84.116" y="57.793" style="font-style:normal;font-variant:normal;font-weight:400;font-stretch:normal;font-family:Gotham;-inkscape-font-specification:Gotham;stroke-width:.264583">1kg.me</tspan></text></g></svg>