<?xml version="1.0" encoding="UTF-8" standalone="no"?>
<!-- Created with Inkscape (http://www.inkscape.org/) -->

<svg
   width="108.9412mm"
   height="129.045mm"
   viewBox="0 0 108.9412 129.045"
   version="1.1"
   id="svg5"
   inkscape:version="1.1.2 (0a00cf5339, 2022-02-04)"
   sodipodi:docname="1kg.svg"
   xmlns:inkscape="http://www.inkscape.org/namespaces/inkscape"
   xmlns:sodipodi="http://sodipodi.sourceforge.net/DTD/sodipodi-0.dtd"
   xmlns="http://www.w3.org/2000/svg"
   xmlns:svg="http://www.w3.org/2000/svg">
  <sodipodi:namedview
     id="namedview7"
     pagecolor="#ffffff"
     bordercolor="#666666"
     borderopacity="1.0"
     inkscape:pageshadow="2"
     inkscape:pageopacity="0.0"
     inkscape:pagecheckerboard="0"
     inkscape:document-units="mm"
     showgrid="false"
     inkscape:zoom="0.74504897"
     inkscape:cx="65.767489"
     inkscape:cy="202.00015"
     inkscape:window-width="1920"
     inkscape:window-height="1025"
     inkscape:window-x="0"
     inkscape:window-y="0"
     inkscape:window-maximized="1"
     inkscape:current-layer="layer1" />
  <defs
     id="defs2" />
  <g
     inkscape:label="Layer 1"
     inkscape:groupmode="layer"
     id="layer1"
     transform="translate(-47.975975,-15.972157)">
    <path
       style="display:inline;fill:#000000;stroke:#000000;stroke-width:0.264583px;stroke-linecap:butt;stroke-linejoin:miter;stroke-opacity:1"
       d="m 104.7658,136.4431 c 6.66226,-1.08109 13.32453,-2.16217 19.98679,-3.24326 -6.08123,3.01222 -12.16247,6.02444 -18.2437,9.03666 m 0,0 c 1.04518,-2.05356 0.51231,-4.8186 -1.74309,-5.7934"
       id="path26051"
       sodipodi:nodetypes="ccccc" />
    <path
       id="path42629"
       style="display:inline;fill:none;stroke:#000000;stroke-width:0.499999;stroke-miterlimit:4;stroke-dasharray:none;stroke-opacity:1"
       d="m 151.68893,141.1981 c 1.35439,-22.64927 -15.13137,-44.592694 -37.14804,-49.877587 -20.596187,-5.646589 -44.04158,3.906943 -54.837426,22.328157 -4.995209,8.21674 -7.573619,17.93273 -7.11236,27.54943"
       sodipodi:nodetypes="ccccc" />
    <path
       id="path890-3"
       style="fill:none;stroke:#000000;stroke-width:0.499999;stroke-miterlimit:4;stroke-dasharray:none;stroke-opacity:1"
       d="m 146.73006,141.1981 c 1.34155,-20.83207 -14.12533,-40.99932 -34.50454,-45.334239 -19.010635,-4.727966 -40.287998,4.871869 -49.353774,22.227909 -3.815675,7.02676 -5.731642,15.11249 -5.321771,23.10633"
       sodipodi:nodetypes="ccccc" />
    <ellipse
       style="fill:none;stroke:#000000;stroke-width:0.5;stroke-miterlimit:4;stroke-dasharray:none;stroke-opacity:1"
       id="path1237"
       cx="102.57546"
       cy="140.32516"
       rx="4.4419856"
       ry="4.441987" />
    <text
       xml:space="preserve"
       style="font-style:normal;font-weight:normal;font-size:10.5833px;line-height:1.25;font-family:sans-serif;fill:#000000;fill-opacity:1;stroke:none;stroke-width:0.264583"
       x="165.12558"
       y="-78.312508"
       id="text3493"
       transform="rotate(70.665459)"><tspan
         sodipodi:role="line"
         id="tspan3491"
         style="font-style:normal;font-variant:normal;font-weight:normal;font-stretch:normal;font-family:'Booster Next FY';-inkscape-font-specification:'Booster Next FY';stroke-width:0.264583"
         x="165.12558"
         y="-78.312508">1</tspan></text>
    <text
       xml:space="preserve"
       style="font-style:normal;font-weight:normal;font-size:10.5833px;line-height:1.25;font-family:sans-serif;fill:#000000;fill-opacity:1;stroke:none;stroke-width:0.264583"
       x="-104.23166"
       y="112.98325"
       id="text5801"
       transform="rotate(-71.543529)"><tspan
         sodipodi:role="line"
         id="tspan5799"
         style="font-style:normal;font-variant:normal;font-weight:normal;font-stretch:normal;font-family:'Booster Next FY';-inkscape-font-specification:'Booster Next FY';stroke-width:0.264583"
         x="-104.23166"
         y="112.98325">4</tspan></text>
    <text
       xml:space="preserve"
       style="font-style:normal;font-weight:normal;font-size:10.5833px;line-height:1.25;font-family:sans-serif;fill:#000000;fill-opacity:1;stroke:none;stroke-width:0.264583"
       x="99.346291"
       y="111.28136"
       id="text6531"><tspan
         sodipodi:role="line"
         id="tspan6529"
         style="font-style:normal;font-variant:normal;font-weight:normal;font-stretch:normal;font-family:'Booster Next FY';-inkscape-font-specification:'Booster Next FY';stroke-width:0.264583"
         x="99.346291"
         y="111.28136">0</tspan></text>
    <g
       id="g25508"
       inkscape:label="Manesillas"
       transform="translate(0,21.166674)">
      <path
         style="fill:none;stroke:#000000;stroke-width:0.5;stroke-linecap:butt;stroke-linejoin:miter;stroke-miterlimit:4;stroke-dasharray:none;stroke-opacity:1"
         d="m 144.09959,105.7542 c -2.12066,0.75609 -4.24133,1.51217 -6.36199,2.26826"
         id="path1924"
         sodipodi:nodetypes="cc" />
      <path
         style="fill:none;stroke:#000000;stroke-width:0.493654;stroke-linecap:butt;stroke-linejoin:miter;stroke-miterlimit:4;stroke-dasharray:none;stroke-opacity:1"
         d="m 102.44079,73.717463 c -0.007,2.432157 -0.0143,4.864314 -0.0215,7.296471"
         id="path1617"
         sodipodi:insensitive="true" />
      <path
         style="fill:none;stroke:#000000;stroke-width:0.5;stroke-linecap:butt;stroke-linejoin:miter;stroke-miterlimit:4;stroke-dasharray:none;stroke-opacity:1"
         d="m 60.778567,105.8129 c 2.041068,0.65313 4.082136,1.30627 6.123204,1.9594"
         id="path1615"
         sodipodi:insensitive="true" />
      <path
         style="fill:none;stroke:#000000;stroke-width:0.264583px;stroke-linecap:butt;stroke-linejoin:miter;stroke-opacity:1"
         d="m 63.595696,100.80041 c 0.81406,0.41759 1.628121,0.83517 2.442181,1.25276"
         id="path24852" />
      <path
         style="fill:none;stroke:#000000;stroke-width:0.264583px;stroke-linecap:butt;stroke-linejoin:miter;stroke-opacity:1"
         d="m 66.39512,95.900165 c 0.672781,0.479078 1.345561,0.958157 2.018342,1.437235"
         id="path24854" />
      <path
         style="fill:none;stroke:#000000;stroke-width:0.264583px;stroke-linecap:butt;stroke-linejoin:miter;stroke-opacity:1"
         d="m 69.579698,91.496202 c 0.628822,0.554754 1.257644,1.109507 1.886466,1.664261"
         id="path24856" />
      <path
         style="fill:none;stroke:#000000;stroke-width:0.264583px;stroke-linecap:butt;stroke-linejoin:miter;stroke-opacity:1"
         d="m 73.264452,87.422333 c 0.547344,0.605872 1.094687,1.211744 1.642031,1.817616"
         id="path24858" />
      <path
         style="fill:none;stroke:#000000;stroke-width:0.264583px;stroke-linecap:butt;stroke-linejoin:miter;stroke-opacity:1"
         d="m 77.284415,83.73792 c 1.013061,1.388406 2.026123,2.776813 3.039184,4.165219"
         id="path24860" />
      <path
         style="fill:none;stroke:#000000;stroke-width:0.264583px;stroke-linecap:butt;stroke-linejoin:miter;stroke-opacity:1"
         d="m 81.965429,80.842719 c 0.39009,0.681565 0.78018,1.36313 1.17027,2.044695"
         id="path24862" />
      <path
         style="fill:none;stroke:#000000;stroke-width:0.264583px;stroke-linecap:butt;stroke-linejoin:miter;stroke-opacity:1"
         d="m 86.602786,78.352519 c 0.291441,0.711586 0.582882,1.423173 0.874323,2.134759"
         id="path24864" />
      <path
         style="fill:none;stroke:#000000;stroke-width:0.264583px;stroke-linecap:butt;stroke-linejoin:miter;stroke-opacity:1"
         d="m 91.838385,76.625028 c 0.214737,0.839684 0.429473,1.679369 0.64421,2.519053"
         id="path24866" />
      <path
         style="fill:none;stroke:#000000;stroke-width:0.264583px;stroke-linecap:butt;stroke-linejoin:miter;stroke-opacity:1"
         d="m 97.160555,75.557625 c 0.08923,0.877622 0.178461,1.755244 0.267692,2.632866"
         id="path24868" />
      <path
         style="fill:none;stroke:#000000;stroke-width:0.264583px;stroke-linecap:butt;stroke-linejoin:miter;stroke-opacity:1"
         d="m 107.78307,75.394822 c -0.0418,0.918235 -0.0835,1.836471 -0.12532,2.754706"
         id="path24870" />
      <path
         style="fill:none;stroke:#000000;stroke-width:0.264583px;stroke-linecap:butt;stroke-linejoin:miter;stroke-opacity:1"
         d="m 112.98006,76.519094 c -0.12234,0.799812 -0.24468,1.599623 -0.36702,2.399435"
         id="path24874" />
      <path
         style="fill:none;stroke:#000000;stroke-width:0.264583px;stroke-linecap:butt;stroke-linejoin:miter;stroke-opacity:1"
         d="m 118.16588,78.35644 c -0.2899,0.750709 -0.57981,1.501417 -0.86971,2.252126"
         id="path24876" />
      <path
         style="fill:none;stroke:#000000;stroke-width:0.264583px;stroke-linecap:butt;stroke-linejoin:miter;stroke-opacity:1"
         d="m 123.00993,80.720241 c -0.39319,0.733908 -0.78637,1.467817 -1.17956,2.201725"
         id="path24878" />
      <path
         style="fill:none;stroke:#000000;stroke-width:0.264583px;stroke-linecap:butt;stroke-linejoin:miter;stroke-opacity:1"
         d="m 127.39857,83.664413 c -0.91186,1.425168 -1.82372,2.850335 -2.73558,4.275503"
         id="path24880" />
      <path
         style="fill:none;stroke:#000000;stroke-width:0.264583px;stroke-linecap:butt;stroke-linejoin:miter;stroke-opacity:1"
         d="m 131.67575,87.269245 c -0.51574,0.58829 -1.03149,1.176581 -1.54723,1.764871"
         id="path24882" />
      <path
         style="fill:none;stroke:#000000;stroke-width:0.264583px;stroke-linecap:butt;stroke-linejoin:miter;stroke-opacity:1"
         d="m 135.36161,91.413897 c -0.62874,0.575151 -1.25749,1.150301 -1.88623,1.725452"
         id="path24884"
         sodipodi:nodetypes="cc" />
      <path
         style="fill:none;stroke:#000000;stroke-width:0.264583px;stroke-linecap:butt;stroke-linejoin:miter;stroke-opacity:1"
         d="m 138.4058,96.031887 c -0.67495,0.426779 -1.3499,0.853559 -2.02485,1.280338"
         id="path24886"
         sodipodi:nodetypes="cc" />
      <path
         style="fill:none;stroke:#000000;stroke-width:0.264583px;stroke-linecap:butt;stroke-linejoin:miter;stroke-opacity:1"
         d="m 141.02703,100.89763 c -0.70843,0.37468 -1.41685,0.74937 -2.12528,1.12405"
         id="path24888"
         sodipodi:nodetypes="cc" />
      <path
         style="fill:none;stroke:#000000;stroke-width:0.264583px;stroke-linecap:butt;stroke-linejoin:miter;stroke-opacity:1"
         d="m 144.47412,111.66791 c -0.85231,0.11768 -1.70461,0.23535 -2.55692,0.35303"
         id="path24890"
         sodipodi:nodetypes="cc" />
      <path
         style="fill:none;stroke:#000000;stroke-width:0.264583px;stroke-linecap:butt;stroke-linejoin:miter;stroke-opacity:1"
         d="m 142.60613,117.36245 c 0.78173,-0.0148 1.56346,-0.0296 2.34519,-0.0444"
         id="path25480" />
      <path
         style="fill:none;stroke:#000000;stroke-width:0.264583px;stroke-linecap:butt;stroke-linejoin:miter;stroke-opacity:1"
         d="m 60.37635,111.62696 c 0.803139,0.12714 1.606278,0.25427 2.409417,0.38141"
         id="path25482" />
      <path
         style="fill:none;stroke:#000000;stroke-width:0.264583px;stroke-linecap:butt;stroke-linejoin:miter;stroke-opacity:1"
         d="m 59.951857,117.21659 c 0.697661,-0.008 1.395321,-0.0156 2.092982,-0.0234"
         id="path25484" />
    </g>
    <path
       style="fill:none;stroke:#000000;stroke-width:0.5;stroke-linecap:butt;stroke-linejoin:miter;stroke-miterlimit:4;stroke-dasharray:none;stroke-opacity:1"
       d="m 92.132342,90.692051 c -7.622841,0.03121 -15.270298,-0.307464 -22.877324,-0.03861 -4.427381,1.07847 -3.435842,6.378058 -4.051738,9.826172 -0.220052,2.2379 -0.440104,4.47579 -0.660156,6.71369 m 0,0 C 71.449425,98.637297 81.511446,93.139015 92.132342,90.692051"
       id="path27159"
       sodipodi:nodetypes="cccccc" />
    <path
       style="fill:none;stroke:#000000;stroke-width:0.5;stroke-linecap:butt;stroke-linejoin:miter;stroke-miterlimit:4;stroke-dasharray:none;stroke-opacity:1"
       d="m 111.68502,90.747442 c 7.98414,0.09254 15.98899,-0.133565 23.96011,0.159464 4.39787,1.305116 3.28625,6.403025 3.94319,9.900514 0.22167,2.23227 0.44333,4.46455 0.665,6.69682 -6.89313,-9.165433 -17.6193,-14.266219 -28.5683,-16.756798 z"
       id="path28287"
       sodipodi:nodetypes="ccccc" />
    <path
       style="fill:none;stroke:#000000;stroke-width:0.5;stroke-linecap:butt;stroke-linejoin:miter;stroke-miterlimit:4;stroke-dasharray:none;stroke-opacity:1"
       d="m 98.365761,90.016956 c -0.01626,-2.447305 -0.03253,-4.89461 -0.04879,-7.341915 -16.687617,-0.01649 -33.375235,-0.03297 -50.062852,-0.04946 0.443461,-1.995128 -1.18065,-5.543889 1.321799,-6.204065 35.286797,-0.0043 70.573592,-0.0085 105.860392,-0.01277 2.29835,0.852663 0.78869,4.192073 1.23041,6.161313 -16.75223,0.01575 -33.50446,0.03149 -50.25669,0.04724 -0.0274,2.431018 -0.0549,4.862037 -0.0823,7.293055 -2.64454,-0.277653 -5.3298,-0.310731 -7.961969,0.106601 z"
       id="path28944"
       sodipodi:nodetypes="ccccccccccc" />
    <path
       style="fill:none;stroke:#000000;stroke-width:0.264583px;stroke-linecap:butt;stroke-linejoin:miter;stroke-opacity:1"
       d="m 98.316969,82.675041 c 2.697691,-0.01925 5.395371,-0.03849 8.093061,-0.05774"
       id="path29411" />
    <g
       id="g32055"
       inkscape:label="KG"
       transform="translate(0,21.166674)">
      <path
         style="fill:none;stroke:#000000;stroke-width:1;stroke-linecap:butt;stroke-linejoin:miter;stroke-miterlimit:4;stroke-dasharray:none;stroke-opacity:1"
         d="m 81.861447,54.910395 c 0.01519,-14.18276 0.03038,-28.365519 0.04557,-42.548279 13.599521,-0.01045 27.199043,-0.0209 40.798563,-0.03135 0.0341,14.154942 0.0682,28.309884 0.1023,42.464826 -13.64881,0.03827 -27.297622,0.07653 -40.946433,0.114803 z"
         id="path29764"
         sodipodi:nodetypes="ccccc" />
      <path
         style="fill:none;stroke:#000000;stroke-width:1;stroke-linecap:butt;stroke-linejoin:miter;stroke-miterlimit:4;stroke-dasharray:none;stroke-opacity:1"
         d="m 93.176443,0.77464239 c 6.336549,-0.0113089 12.673097,-0.0226179 19.009647,-0.0339268 4.38095,-2.65993809 -0.31722,-6.75112649 -3.89915,-5.43427249 -5.09884,-3.191e-4 -10.197668,-6.383e-4 -15.296501,-9.574e-4 -2.921313,0.3678166 -2.841793,5.31985771 0.186004,5.46915669 z"
         id="path30678"
         sodipodi:nodetypes="cccccccc" />
      <path
         style="fill:none;stroke:#000000;stroke-width:1;stroke-linecap:butt;stroke-linejoin:miter;stroke-miterlimit:4;stroke-dasharray:none;stroke-opacity:1"
         d="M 81.907016,12.362116 C 87.830696,10.847994 95.248262,7.9051335 95.363254,0.65258833"
         id="path31710"
         sodipodi:nodetypes="cc" />
      <path
         style="fill:none;stroke:#000000;stroke-width:1;stroke-linecap:butt;stroke-linejoin:miter;stroke-miterlimit:4;stroke-dasharray:none;stroke-opacity:1"
         d="m 109.51611,0.54829191 c 0.006,7.31878899 7.11342,10.38019009 13.18947,11.78247409"
         id="path31802"
         sodipodi:nodetypes="cc" />
    </g>
    <text
       xml:space="preserve"
       style="font-style:normal;font-weight:normal;font-size:10.5833px;line-height:1.25;font-family:sans-serif;fill:#000000;fill-opacity:1;stroke:none;stroke-width:0.264583"
       x="84.116188"
       y="57.793423"
       id="text35251"><tspan
         sodipodi:role="line"
         id="tspan35249"
         style="font-style:normal;font-variant:normal;font-weight:normal;font-stretch:normal;font-family:Gotham;-inkscape-font-specification:Gotham;stroke-width:0.264583"
         x="84.116188"
         y="57.793423">1kg.me</tspan></text>
  </g>
</svg>
