<svg xmlns="http://www.w3.org/2000/svg" width="411.746" height="487.729" viewBox="0 0 108.941 129.045"><g transform="translate(-47.976 -15.972)"><path d="m99.84 136.839 3.11-15.188 2.94 15.292m0 0c-2.101-1.397-4.34-1.402-6.05-.104" style="display:inline;fill:#000;stroke:#000;stroke-width:.264583px;stroke-linecap:butt;stroke-linejoin:miter;stroke-opacity:1"/><path d="M573.313 533.662c.131-2.29.221-4.583.269-6.877 0-103.576-83.965-187.54-187.541-187.54S198.5 423.208 198.5 526.784c.048 2.294.138 4.587.27 6.877" style="display:inline;fill:none;stroke:#000;stroke-width:1.88976;stroke-miterlimit:4;stroke-dasharray:none;stroke-opacity:1" transform="scale(.26458)"/><path d="M554.57 533.662c.133-2.29.219-4.583.258-6.877 0-93.218-75.568-168.787-168.787-168.787-93.219 0-168.787 75.569-168.787 168.787.04 2.294.125 4.587.258 6.877" style="fill:none;stroke:#000;stroke-width:1.88976;stroke-miterlimit:4;stroke-dasharray:none;stroke-opacity:1" transform="scale(.26458)"/><circle cx="102.575" cy="140.325" r="4.442" style="fill:none;stroke:#000;stroke-width:.5;stroke-miterlimit:4;stroke-dasharray:none;stroke-opacity:1"/><text xml:space="preserve" x="165.126" y="-78.313" style="font-style:normal;font-weight:400;font-size:10.5833px;line-height:1.25;font-family:sans-serif;fill:#000;fill-opacity:1;stroke:none;stroke-width:.264583" transform="rotate(70.665)"><tspan x="165.126" y="-78.313" style="font-style:normal;font-variant:normal;font-weight:400;font-stretch:normal;font-family:&quot;Booster Next FY&quot;;-inkscape-font-specification:&quot;Booster Next FY&quot;;stroke-width:.264583">1</tspan></text><text xml:space="preserve" x="-104.232" y="112.983" style="font-style:normal;font-weight:400;font-size:10.5833px;line-height:1.25;font-family:sans-serif;fill:#000;fill-opacity:1;stroke:none;stroke-width:.264583" transform="rotate(-71.544)"><tspan x="-104.232" y="112.983" style="font-style:normal;font-variant:normal;font-weight:400;font-stretch:normal;font-family:&quot;Booster Next FY&quot;;-inkscape-font-specification:&quot;Booster Next FY&quot;;stroke-width:.264583">4</tspan></text><text xml:space="preserve" x="99.346" y="111.281" style="font-style:normal;font-weight:400;font-size:10.5833px;line-height:1.25;font-family:sans-serif;fill:#000;fill-opacity:1;stroke:none;stroke-width:.264583"><tspan x="99.346" y="111.281" style="font-style:normal;font-variant:normal;font-weight:400;font-stretch:normal;font-family:&quot;Booster Next FY&quot;;-inkscape-font-specification:&quot;Booster Next FY&quot;;stroke-width:.264583">0</tspan></text><path d="m144.1 105.754-6.362 2.268" style="fill:none;stroke:#000;stroke-width:.5;stroke-linecap:butt;stroke-linejoin:miter;stroke-miterlimit:4;stroke-dasharray:none;stroke-opacity:1" transform="translate(0 21.167)"/><path d="m102.44 73.717-.02 7.297" style="fill:none;stroke:#000;stroke-width:.493654;stroke-linecap:butt;stroke-linejoin:miter;stroke-miterlimit:4;stroke-dasharray:none;stroke-opacity:1" transform="translate(0 21.167)"/><path d="m60.779 105.813 6.123 1.96" style="fill:none;stroke:#000;stroke-width:.5;stroke-linecap:butt;stroke-linejoin:miter;stroke-miterlimit:4;stroke-dasharray:none;stroke-opacity:1" transform="translate(0 21.167)"/><path d="m63.596 100.8 2.442 1.253M66.395 95.9l2.018 1.437M69.58 91.496l1.886 1.664M73.264 87.422l1.642 1.818M77.284 83.738l3.04 4.165M81.965 80.843l1.17 2.044M86.603 78.353l.874 2.134M91.838 76.625l.645 2.52M97.16 75.558l.268 2.632M107.783 75.395l-.125 2.755M112.98 76.52l-.367 2.399M118.166 78.356l-.87 2.253M123.01 80.72l-1.18 2.202M127.399 83.664l-2.736 4.276M131.676 87.27l-1.547 1.764M135.362 91.414l-1.887 1.725M138.406 96.032l-2.025 1.28M141.027 100.898l-2.125 1.124M144.474 111.668l-2.557.353M142.606 117.362l2.345-.044M60.376 111.627l2.41.381M59.952 117.217l2.093-.024" style="fill:none;stroke:#000;stroke-width:.264583px;stroke-linecap:butt;stroke-linejoin:miter;stroke-opacity:1" transform="translate(0 21.167)"/><path d="m92.132 90.692-21.92-.174c-2.765.23-3.766 1.505-4.414 3.911l-1.255 12.764m0 0c7.05-8.574 16.415-13.833 27.59-16.5M111.685 90.747l23.013.038c2.713.07 3.899 2.332 4.223 3.3l1.332 13.42c-7.836-10.031-17.912-14.158-28.568-16.758Z" style="fill:none;stroke:#000;stroke-width:.5;stroke-linecap:butt;stroke-linejoin:miter;stroke-miterlimit:4;stroke-dasharray:none;stroke-opacity:1"/><path d="m98.366 90.017-.049-7.342-49.685 2.11-.028-5.032c.05-.797.453-1.095 1.012-1.171l50.805-2.167 2.503 5.676-3.047 3.117 1.467 3.634-.446-3.866 3.002-2.283-1.107-4.93 3.542-1.348 48.719.975c.813.062 1.221.478 1.221 1.252l.01 4.91-49.875-.935-.082 7.293c-2.75-.289-5.416-.297-7.962.107z" style="fill:none;stroke:#000;stroke-width:.5;stroke-linecap:round;stroke-linejoin:round;stroke-miterlimit:4;stroke-dasharray:none;stroke-opacity:1"/><path d="m93.176.775 19.01-.034c1.218-.396 1.725-1.36 1.738-2.718-.075-1.276-.546-2.292-1.922-2.716L92.99-4.695c-1.206.184-1.96 1.036-2.154 2.518-.003 2.021.995 2.716 2.34 2.952z" style="fill:none;stroke:#000;stroke-width:1.00000003;stroke-linecap:butt;stroke-linejoin:miter;stroke-miterlimit:4;stroke-dasharray:none;stroke-opacity:1;stroke-dashoffset:0" transform="translate(0 21.167)"/><path d="M81.907 12.362c6.46-1.926 12.86-3.913 13.456-11.71M109.516.548c.285 4.002 1.912 6.456 4.217 8.13 2.482 1.804 5.75 2.702 8.973 3.653" style="fill:none;stroke:#000;stroke-width:1.00000003;stroke-linecap:butt;stroke-linejoin:miter;stroke-miterlimit:4;stroke-dasharray:none;stroke-opacity:1;stroke-dashoffset:0" transform="translate(0 21.167)"/><path d="m81.861 76.077.046-42.548 40.799-.032.102 42.465z" style="fill:none;stroke:#000;stroke-width:1;stroke-linecap:butt;stroke-linejoin:miter;stroke-miterlimit:4;stroke-dasharray:none;stroke-dashoffset:0;stroke-opacity:1"/><text xml:space="preserve" x="84.048" y="120.081" style="font-style:normal;font-weight:400;font-size:10.5833px;line-height:1.25;font-family:sans-serif;fill:#000;fill-opacity:1;stroke:none;stroke-width:.264583"><tspan x="84.048" y="120.081" style="font-style:normal;font-variant:normal;font-weight:400;font-stretch:normal;font-family:Gotham;-inkscape-font-specification:Gotham;stroke-width:.264583">1kg.me</tspan></text><text xml:space="preserve" x="102.238" y="46.916" style="font-style:normal;font-weight:400;font-size:8.46667px;line-height:1.25;font-family:sans-serif;fill:#000;fill-opacity:1;stroke:none;stroke-width:.264583"><tspan x="102.238" y="46.916" style="font-style:normal;font-variant:normal;font-weight:400;font-stretch:normal;font-size:8.46667px;font-family:&quot;Booster Next FY&quot;;-inkscape-font-specification:&quot;Booster Next FY&quot;;text-align:center;text-anchor:middle;stroke-width:.264583">500</tspan><tspan x="102.238" y="57.709" style="font-style:normal;font-variant:normal;font-weight:400;font-stretch:normal;font-size:8.46667px;font-family:&quot;Booster Next FY&quot;;-inkscape-font-specification:&quot;Booster Next FY&quot;;text-align:center;text-anchor:middle;stroke-width:.264583">Server</tspan><tspan x="102.238" y="68.501" style="font-style:normal;font-variant:normal;font-weight:400;font-stretch:normal;font-size:8.46667px;font-family:&quot;Booster Next FY&quot;;-inkscape-font-specification:&quot;Booster Next FY&quot;;text-align:center;text-anchor:middle;stroke-width:.264583">Error</tspan></text></g></svg>